<?xml version="1.0" encoding="UTF-8" standalone="no"?>
<!-- Generator: Adobe Illustrator 19.0.0, SVG Export Plug-In . SVG Version: 6.00 Build 0)  -->

<svg
   xmlns:dc="http://purl.org/dc/elements/1.1/"
   xmlns:cc="http://creativecommons.org/ns#"
   xmlns:rdf="http://www.w3.org/1999/02/22-rdf-syntax-ns#"
   xmlns:svg="http://www.w3.org/2000/svg"
   xmlns="http://www.w3.org/2000/svg"
   xmlns:sodipodi="http://sodipodi.sourceforge.net/DTD/sodipodi-0.dtd"
   xmlns:inkscape="http://www.inkscape.org/namespaces/inkscape"
   version="1.1"
   id="Layer_1"
   x="0px"
   y="0px"
   viewBox="0 0 512 512"
   style="enable-background:new 0 0 512 512;"
   xml:space="preserve"
   width="512"
   height="512"
   sodipodi:docname="potwithflower.svg"
   inkscape:version="0.92.4 (5da689c313, 2019-01-14)"><metadata
   id="metadata124"><rdf:RDF><cc:Work
       rdf:about=""><dc:format>image/svg+xml</dc:format><dc:type
         rdf:resource="http://purl.org/dc/dcmitype/StillImage" /><dc:title></dc:title></cc:Work></rdf:RDF></metadata><defs
   id="defs122" /><sodipodi:namedview
   pagecolor="#ffffff"
   bordercolor="#666666"
   borderopacity="1"
   objecttolerance="10"
   gridtolerance="10"
   guidetolerance="10"
   inkscape:pageopacity="0"
   inkscape:pageshadow="2"
   inkscape:window-width="1320"
   inkscape:window-height="704"
   id="namedview120"
   showgrid="false"
   inkscape:zoom="1.0039062"
   inkscape:cx="256"
   inkscape:cy="295.84436"
   inkscape:window-x="40"
   inkscape:window-y="27"
   inkscape:window-maximized="1"
   inkscape:current-layer="g117" />
<g
   id="g117">
	
	
	<polygon
   style="fill:#FFAC57;"
   points="114.397,277.478 141.052,511.553 370.501,511.553 397.155,277.478  "
   id="polygon105" />
	<polygon
   style="fill:#FFC073;"
   points="114.397,277.478 141.052,511.553 255.776,511.553 255.776,277.478  "
   id="polygon107" />
	<rect
   x="76.59"
   y="195.374"
   style="fill:#FFC073;"
   width="358.373"
   height="95.406"
   id="rect109" />
	<rect
   x="76.59"
   y="195.374"
   style="fill:#FFDBA9;"
   width="179.187"
   height="95.406"
   id="rect111" />
	
	
</g>

<g>
<path transform="translate(82,230) scale(0.7)"  style="fill:#092327;" d="M263.459,173.627c2.115-1.302,5.938-1.954,11.473-1.954v-6.347h-53.705v6.347
	c5.534,0,9.356,0.652,11.474,1.954c2.115,1.302,3.173,4.231,3.173,8.788v132.307c0,3.582-1.058,6.103-3.173,7.567
	c-2.117,1.464-5.939,2.197-11.474,2.197v6.347h53.705v-6.347c-5.534,0-9.357-0.732-11.473-2.197
	c-2.118-1.464-3.174-3.986-3.174-7.567V182.414C260.285,177.858,261.341,174.928,263.459,173.627z"/>
<path transform="translate(82,230) scale(0.7)" style="fill:none;stroke:#092327;stroke-width:2;stroke-linecap:round;stroke-linejoin:round;stroke-miterlimit:10;" d="
	M263.459,173.627c2.115-1.302,5.938-1.954,11.473-1.954v-6.347h-53.705v6.347c5.534,0,9.356,0.652,11.474,1.954
	c2.115,1.302,3.173,4.231,3.173,8.788v132.307c0,3.582-1.058,6.103-3.173,7.567c-2.117,1.464-5.939,2.197-11.474,2.197v6.347h53.705
	v-6.347c-5.534,0-9.357-0.732-11.473-2.197c-2.118-1.464-3.174-3.986-3.174-7.567V182.414
	C260.285,177.858,261.341,174.928,263.459,173.627z"/>
</g>

</svg>