<?xml version="1.0" encoding="iso-8859-1"?>
<!-- Generator: Adobe Illustrator 19.0.0, SVG Export Plug-In . SVG Version: 6.00 Build 0)  -->
<svg xmlns="http://www.w3.org/2000/svg" xmlns:xlink="http://www.w3.org/1999/xlink" version="1.1" id="Layer_1" x="0px" y="0px" viewBox="0 0 511.553 511.553" style="enable-background:new 0 0 511.553 511.553;" xml:space="preserve" width="512" height="512">
<g>
	<g>
		<rect x="240.776" y="122.464" style="fill:#007842;" width="30" height="87.91"/>
	</g>
	<rect x="240.776" y="122.464" style="fill:#009A2D;" width="15" height="87.91"/>
	<polygon style="fill:#FFAC57;" points="114.397,277.478 141.052,511.553 370.501,511.553 397.155,277.478  "/>
	<polygon style="fill:#FFC073;" points="114.397,277.478 141.052,511.553 255.776,511.553 255.776,277.478  "/>
	<rect x="76.59" y="195.374" style="fill:#FFC073;" width="358.373" height="95.406"/>
	<rect x="76.59" y="195.374" style="fill:#FFDBA9;" width="179.187" height="95.406"/>
	<path style="fill:#00CA3F;" d="M331.755,0c-31.717,0-59.69,16.318-75.979,40.995C239.488,16.318,211.515,0,179.798,0h-36.383   v46.485c0,50.166,40.813,90.979,90.979,90.979h6.383h30h6.383c50.166,0,90.979-40.813,90.979-90.979V0H331.755z"/>
	<path style="fill:#6CEA66;" d="M179.798,0h-36.383v46.485c0,50.166,40.813,90.979,90.979,90.979h21.383V40.995   C239.488,16.318,211.515,0,179.798,0z"/>
</g>
<g transform="translate(82,230) scale(0.7)">
<path style="fill:#092327;" d="M263.459,173.627c2.115-1.302,5.938-1.954,11.473-1.954v-6.347h-53.705v6.347
	c5.534,0,9.356,0.652,11.474,1.954c2.115,1.302,3.173,4.231,3.173,8.788v132.307c0,3.582-1.058,6.103-3.173,7.567
	c-2.117,1.464-5.939,2.197-11.474,2.197v6.347h53.705v-6.347c-5.534,0-9.357-0.732-11.473-2.197
	c-2.118-1.464-3.174-3.986-3.174-7.567V182.414C260.285,177.858,261.341,174.928,263.459,173.627z"/>
<path style="fill:none;stroke:#092327;stroke-width:2;stroke-linecap:round;stroke-linejoin:round;stroke-miterlimit:10;" d="
	M263.459,173.627c2.115-1.302,5.938-1.954,11.473-1.954v-6.347h-53.705v6.347c5.534,0,9.356,0.652,11.474,1.954
	c2.115,1.302,3.173,4.231,3.173,8.788v132.307c0,3.582-1.058,6.103-3.173,7.567c-2.117,1.464-5.939,2.197-11.474,2.197v6.347h53.705
	v-6.347c-5.534,0-9.357-0.732-11.473-2.197c-2.118-1.464-3.174-3.986-3.174-7.567V182.414
	C260.285,177.858,261.341,174.928,263.459,173.627z"/>
</g>

</svg>
