<?xml version="1.0" encoding="iso-8859-1"?>
<!-- Generator: Adobe Illustrator 19.0.0, SVG Export Plug-In . SVG Version: 6.00 Build 0)  -->
<svg xmlns="http://www.w3.org/2000/svg" xmlns:xlink="http://www.w3.org/1999/xlink" version="1.1" id="Layer_1" x="0px" y="0px" viewBox="0 0 511.553 511.553" style="enable-background:new 0 0 511.553 511.553;" xml:space="preserve" width="512" height="512">
<g>
	<g>
		<rect x="240.776" y="122.464" style="fill:#007842;" width="30" height="87.91"/>
	</g>
	<rect x="240.776" y="122.464" style="fill:#009A2D;" width="15" height="87.91"/>
	<polygon style="fill:#FFAC57;" points="114.397,277.478 141.052,511.553 370.501,511.553 397.155,277.478  "/>
	<polygon style="fill:#FFC073;" points="114.397,277.478 141.052,511.553 255.776,511.553 255.776,277.478  "/>
	<rect x="76.59" y="195.374" style="fill:#FFC073;" width="358.373" height="95.406"/>
	<rect x="76.59" y="195.374" style="fill:#FFDBA9;" width="179.187" height="95.406"/>
	<path style="fill:#00CA3F;" d="M331.755,0c-31.717,0-59.69,16.318-75.979,40.995C239.488,16.318,211.515,0,179.798,0h-36.383   v46.485c0,50.166,40.813,90.979,90.979,90.979h6.383h30h6.383c50.166,0,90.979-40.813,90.979-90.979V0H331.755z"/>
	<path style="fill:#6CEA66;" d="M179.798,0h-36.383v46.485c0,50.166,40.813,90.979,90.979,90.979h21.383V40.995   C239.488,16.318,211.515,0,179.798,0z"/>
</g>
<g transform="translate(82,230) scale(0.7)">
<path style="fill:#092327;" d="M317.162,173.625c2.115-1.301,5.939-1.952,11.473-1.952v-6.348H167.523v6.348
	c5.533,0,9.355,0.651,11.475,1.952c2.113,1.303,3.172,4.232,3.172,8.788v132.308c0,3.581-1.059,6.103-3.172,7.567
	c-2.119,1.465-5.941,2.197-11.475,2.197v6.347h161.111v-6.347c-5.533,0-9.357-0.732-11.473-2.197s-3.174-3.986-3.174-7.567V182.413
	C313.988,177.858,315.047,174.928,317.162,173.625z M235.873,314.721c0,3.581-1.057,6.103-3.172,7.567
	c-2.119,1.465-5.941,2.197-11.475,2.197s-9.357-0.732-11.473-2.197s-3.174-3.986-3.174-7.567V182.413
	c0-4.556,1.059-7.485,3.174-8.788c2.115-1.301,5.939-1.952,11.473-1.952s9.355,0.651,11.475,1.952
	c2.115,1.303,3.172,4.232,3.172,8.788V314.721z M289.578,314.721c0,3.581-1.059,6.103-3.172,7.567
	c-2.119,1.465-5.941,2.197-11.475,2.197c-5.535,0-9.357-0.732-11.473-2.197c-2.117-1.465-3.174-3.986-3.174-7.567V182.413
	c0-4.556,1.057-7.485,3.174-8.788c2.115-1.301,5.938-1.952,11.473-1.952c5.533,0,9.355,0.651,11.475,1.952
	c2.113,1.303,3.172,4.232,3.172,8.788V314.721z"/>
<path style="fill:none;stroke:#092327;stroke-width:2;stroke-linecap:round;stroke-linejoin:round;stroke-miterlimit:10;" d="
	M317.162,173.625c2.115-1.301,5.939-1.952,11.473-1.952v-6.348H167.523v6.348c5.533,0,9.355,0.651,11.475,1.952
	c2.113,1.303,3.172,4.232,3.172,8.788v132.308c0,3.581-1.059,6.103-3.172,7.567c-2.119,1.465-5.941,2.197-11.475,2.197v6.347
	h161.111v-6.347c-5.533,0-9.357-0.732-11.473-2.197s-3.174-3.986-3.174-7.567V182.413
	C313.988,177.858,315.047,174.928,317.162,173.625z M235.873,314.721c0,3.581-1.057,6.103-3.172,7.567
	c-2.119,1.465-5.941,2.197-11.475,2.197s-9.357-0.732-11.473-2.197s-3.174-3.986-3.174-7.567V182.413
	c0-4.556,1.059-7.485,3.174-8.788c2.115-1.301,5.939-1.952,11.473-1.952s9.355,0.651,11.475,1.952
	c2.115,1.303,3.172,4.232,3.172,8.788V314.721z M289.578,314.721c0,3.581-1.059,6.103-3.172,7.567
	c-2.119,1.465-5.941,2.197-11.475,2.197c-5.535,0-9.357-0.732-11.473-2.197c-2.117-1.465-3.174-3.986-3.174-7.567V182.413
	c0-4.556,1.057-7.485,3.174-8.788c2.115-1.301,5.938-1.952,11.473-1.952c5.533,0,9.355,0.651,11.475,1.952
	c2.113,1.303,3.172,4.232,3.172,8.788V314.721z"/>
</g>
</svg>
